<svg xmlns="http://www.w3.org/2000/svg" viewBox="0 0 108 20.78"><defs><style>.cls-1{fill:#ee771b;}.cls-2{fill:#86898d;}</style></defs><title>Logo_Orange_Linksb</title><g id="Ebene_2" data-name="Ebene 2"><g id="Ebene_1-2" data-name="Ebene 1"><path class="cls-1" d="M20.61,8.57a10.65,10.65,0,0,0-.48-1.76,10.41,10.41,0,0,0-.76-1.62,10.28,10.28,0,0,0-3.8-3.8A10.12,10.12,0,0,0,12.18.16,10.57,10.57,0,0,0,10.38,0V.81A10.14,10.14,0,0,0,8.72,1a9.29,9.29,0,0,0-1.61.43,8.7,8.7,0,0,0-1.51.71A9.53,9.53,0,0,0,4.23,3,10.2,10.2,0,0,0,3.05,4.23l.66.55L5,5.88l.6.51L7.54,8A3.92,3.92,0,0,1,8,7.54L6.39,5.62,5.89,5a7.85,7.85,0,0,1,1-.71L6,2.83A10,10,0,0,1,7.4,2.19L8,3.81l.27.73L9.11,6.9a2.8,2.8,0,0,1,.63-.17,3.39,3.39,0,0,1,.64-.06V3.39a7,7,0,0,1,1.22.11l-.13.75L11,6.73a2.66,2.66,0,0,1,.63.17l-.47,1.29-.41,1.14a.38.38,0,0,1,.17.08.57.57,0,0,1,.16.11l.78-.93.89-1,1.6-1.92L14.88,5,16,3.71,16.54,3a13.14,13.14,0,0,1,1.18,1.18,9.53,9.53,0,0,1,1,1.37L17.93,6a9,9,0,0,1,.64,1.37L17,8l-.73.26-2.36.86-1.29.48a1.64,1.64,0,0,1,.1.38L14,9.74a3.31,3.31,0,0,1,.06.64h5A7.51,7.51,0,0,0,19,8.87l.86-.15A10,10,0,0,1,20,10.38h.82A10.88,10.88,0,0,0,20.61,8.57Z"/><path class="cls-1" d="M17.26,11.59l-.76-.13L14,11a2.36,2.36,0,0,1-.17.63l2.36.85.73.27a7.43,7.43,0,0,1-.51,1.11,8.63,8.63,0,0,1-.71,1l-.59-.51-1.92-1.61-1.05-.88a1.92,1.92,0,0,1-.28.29,2.54,2.54,0,0,1-.34.23,1.76,1.76,0,0,1-.37.17,2.22,2.22,0,0,1-.39.11l-.21-1.19-.2,0-.19,0L10,11.44l-.42,1.13-.47,1.3-.85,2.35L8,17a6.15,6.15,0,0,1-1.1-.52,6.84,6.84,0,0,1-1-.69A7,7,0,0,1,5,14.88L3.7,16a9.18,9.18,0,0,0,1.08,1.08A7.75,7.75,0,0,0,6,17.93a7.44,7.44,0,0,0,1.37.64A9.37,9.37,0,0,0,8.87,19l-.15.85a9.27,9.27,0,0,1-1.61-.42,10.46,10.46,0,0,1-1.51-.71,10.18,10.18,0,0,1-1.37-1,9.48,9.48,0,0,1-1.18-1.19,8.85,8.85,0,0,1-1-1.37l.74-.42,1.5-.86.68-.4a4.58,4.58,0,0,0,.62.89l1.91-1.61a2.51,2.51,0,0,1-.37-.53,2.58,2.58,0,0,1-.28-.58A3.32,3.32,0,0,1,6.73,11a3.55,3.55,0,0,1,0-1.3L8.09,10a1.59,1.59,0,0,1,.1-.39,1.76,1.76,0,0,1,.17-.37L7.17,8.52a3.19,3.19,0,0,0-.28.59L4.54,8.25,3.81,8l-1.62-.6a8.24,8.24,0,0,0-.38,1.48l1.69.3.76.13a7.61,7.61,0,0,0-.09,1.08H1.67a7.51,7.51,0,0,0,.14,1.51L1,12a9.15,9.15,0,0,1-.14-1.66A9,9,0,0,1,1,8.72,9.65,9.65,0,0,1,1.38,7.1a9.92,9.92,0,0,1,.71-1.51l-.64-.37-.06,0A11.41,11.41,0,0,0,.63,6.81,9.72,9.72,0,0,0,.16,8.57a10.32,10.32,0,0,0,0,3.62,9.31,9.31,0,0,0,.47,1.74,9.77,9.77,0,0,0,.76,1.64,10.34,10.34,0,0,0,1,1.48,11.14,11.14,0,0,0,1.28,1.29,10.28,10.28,0,0,0,1.48,1,9.81,9.81,0,0,0,1.64.77,11.27,11.27,0,0,0,1.75.47,10.66,10.66,0,0,0,1.8.15,10.78,10.78,0,0,0,1.81-.15,11.14,11.14,0,0,0,1.74-.47,9.12,9.12,0,0,0,1.64-.77,11,11,0,0,0,1.49-1,10.31,10.31,0,0,0,1.27-1.29l0,0-.56-.47a11,11,0,0,1-1.19,1.18L16,17.05A8.4,8.4,0,0,0,17.06,16a9,9,0,0,0,.87-1.25l.74.43a8.36,8.36,0,0,0,.71-1.51A9.29,9.29,0,0,0,19.81,12L19,11.89Zm-6.88,5.78a6.15,6.15,0,0,0,1.22-.11l-.13-.76L11,14a3.32,3.32,0,0,0,.62-.16l.86,2.35.27.73.58,1.62a8.82,8.82,0,0,1-1.47.39,8.31,8.31,0,0,1-1.51.14Z"/><path class="cls-2" d="M34.6,10.88V12.7H31.81v8.08H29.52V12.7H26.73V10.88Z"/><path class="cls-2" d="M38,20.78H35.65v-9.9H38Z"/><path class="cls-2" d="M44.49,16.79c.09.18.17.38.25.57a5.89,5.89,0,0,1,.24-.58c.09-.19.17-.37.27-.55l2.54-5a.78.78,0,0,1,.14-.2.44.44,0,0,1,.16-.1.54.54,0,0,1,.2,0h2v9.9h-2v-5.7c0-.27,0-.57,0-.89l-2.63,5.09a1,1,0,0,1-.33.36.89.89,0,0,1-.47.12h-.31a.91.91,0,0,1-.47-.12,1,1,0,0,1-.33-.36l-2.64-5.1c0,.16,0,.32,0,.47s0,.3,0,.43v5.7h-2v-9.9h2a.65.65,0,0,1,.2,0,.54.54,0,0,1,.16.1l.14.2,2.54,5C44.32,16.42,44.41,16.6,44.49,16.79Z"/><path class="cls-2" d="M57.89,10.88v1.76H53.83V15h3.11v1.7H53.83V19h4.06v1.77H51.52v-9.9Z"/><path class="cls-2" d="M66.68,10.88V12.7H63.89v8.08H61.6V12.7H58.81V10.88Z"/><path class="cls-2" d="M69.88,17.12v3.66h-2.3v-9.9H70.8a6.58,6.58,0,0,1,1.84.22,3.54,3.54,0,0,1,1.23.61,2.49,2.49,0,0,1,.7.93,3.2,3.2,0,0,1,.22,1.17,3.33,3.33,0,0,1-.13.91,2.77,2.77,0,0,1-.39.79,2.94,2.94,0,0,1-.62.65,3.32,3.32,0,0,1-.85.47,3,3,0,0,1,.43.29,1.76,1.76,0,0,1,.35.41l2.1,3.45H73.6a.89.89,0,0,1-.83-.44l-1.64-2.87a.66.66,0,0,0-.25-.27.83.83,0,0,0-.42-.08Zm0-1.59h.92a2.32,2.32,0,0,0,.8-.12,1.45,1.45,0,0,0,.54-.33,1.21,1.21,0,0,0,.31-.49,2,2,0,0,0,.09-.61,1.3,1.3,0,0,0-.42-1,2,2,0,0,0-1.32-.36h-.92Z"/><path class="cls-2" d="M85.87,20.78H84.09a.86.86,0,0,1-.49-.14.69.69,0,0,1-.27-.36l-.58-1.72H79l-.59,1.72a.77.77,0,0,1-.26.35.81.81,0,0,1-.49.15H75.86l3.83-9.9H82ZM79.52,17h2.7l-.91-2.71-.21-.61c-.08-.23-.16-.48-.23-.75-.08.27-.15.53-.23.76s-.15.44-.21.62Z"/><path class="cls-2" d="M84.07,10.88h1.85a.83.83,0,0,1,.49.13.69.69,0,0,1,.27.36l1.92,5.3.26.76c.09.27.17.56.25.85a7.55,7.55,0,0,1,.22-.85c.08-.27.16-.53.25-.76l1.9-5.3a.74.74,0,0,1,.26-.34.77.77,0,0,1,.49-.15h1.86l-4,9.9H88Z"/><path class="cls-2" d="M100.94,10.88v1.76H96.87V15H100v1.7H96.87V19h4.07v1.77H94.56v-9.9Z"/><path class="cls-2" d="M104.33,18.94H108v1.84h-6v-9.9h2.29Z"/><path class="cls-2" d="M31.55,4.19A1.19,1.19,0,0,0,32,4.1a.9.9,0,0,0,.35-.25,1,1,0,0,0,.22-.38A1.37,1.37,0,0,0,32.67,3V0h.91V3a2.16,2.16,0,0,1-.14.81,1.83,1.83,0,0,1-.4.64,1.87,1.87,0,0,1-.64.42,2.34,2.34,0,0,1-.85.15,2.26,2.26,0,0,1-.85-.15,1.78,1.78,0,0,1-.64-.42,1.85,1.85,0,0,1-.41-.64A2.38,2.38,0,0,1,29.51,3V0h.92V3a1.61,1.61,0,0,0,.07.51,1,1,0,0,0,.22.39,1,1,0,0,0,.35.25A1.21,1.21,0,0,0,31.55,4.19Z"/><path class="cls-2" d="M48.51,3V4.93h-.92V0h1.5A3,3,0,0,1,50,.12a1.55,1.55,0,0,1,.59.29,1.08,1.08,0,0,1,.34.45,1.48,1.48,0,0,1,.1.57,1.49,1.49,0,0,1-.07.47,1.53,1.53,0,0,1-.21.4,1.27,1.27,0,0,1-.34.31,1.63,1.63,0,0,1-.46.22.89.89,0,0,1,.3.28l1.23,1.82h-.82a.38.38,0,0,1-.35-.19l-1-1.57a.29.29,0,0,0-.13-.12.35.35,0,0,0-.2,0Zm0-.66h.57a1.53,1.53,0,0,0,.45-.06.85.85,0,0,0,.31-.18A.7.7,0,0,0,50,1.84a.93.93,0,0,0,.06-.34.7.7,0,0,0-.25-.58,1.18,1.18,0,0,0-.75-.2h-.58Z"/><path class="cls-2" d="M65,4.93V0h1.69a3.25,3.25,0,0,1,.83.1,1.45,1.45,0,0,1,.56.26,1.07,1.07,0,0,1,.32.41,1.33,1.33,0,0,1,.1.54,1.14,1.14,0,0,1,0,.33.87.87,0,0,1-.16.3A1.31,1.31,0,0,1,68,2.2a1.77,1.77,0,0,1-.39.19c.67.15,1,.52,1,1.09a1.4,1.4,0,0,1-.12.58,1.2,1.2,0,0,1-.35.46,1.5,1.5,0,0,1-.56.3,2.49,2.49,0,0,1-.76.11Zm.91-2.79h.73A1.18,1.18,0,0,0,67.34,2a.61.61,0,0,0,.24-.54.64.64,0,0,0-.22-.55,1.19,1.19,0,0,0-.68-.16H65.9Zm0,.63V4.21h.93a1.35,1.35,0,0,0,.43-.06A.72.72,0,0,0,67.53,4a.61.61,0,0,0,.15-.24.88.88,0,0,0,0-.29.82.82,0,0,0,0-.28A.6.6,0,0,0,67.52,3a.82.82,0,0,0-.28-.14,1.64,1.64,0,0,0-.41,0Z"/><path class="cls-2" d="M86.64,4.93h-.71a.29.29,0,0,1-.19-.06.33.33,0,0,1-.11-.15l-.37-1h-2l-.36,1a.36.36,0,0,1-.11.14.26.26,0,0,1-.19.07h-.71L83.78,0h.93ZM83.46,3.07H85l-.6-1.63a2.56,2.56,0,0,1-.09-.26,2.42,2.42,0,0,1-.1-.32c0,.12-.06.22-.09.32s-.06.19-.09.27Z"/><path class="cls-2" d="M100.75,0l.07,0,.06,0,.07.08,2.58,3.29a1.94,1.94,0,0,1,0-.24c0-.07,0-.14,0-.21V0h.81V4.93h-.47a.3.3,0,0,1-.18,0,.31.31,0,0,1-.14-.12L101,1.5a1.55,1.55,0,0,1,0,.22,1.28,1.28,0,0,1,0,.19v3h-.8V0h.58Z"/></g></g></svg>