<svg xmlns="http://www.w3.org/2000/svg" viewBox="0 0 107.99 107.99"><defs><style>.cls-1{fill:#ee771b;}</style></defs><title>Logo_Orange_Bildm</title><g id="Ebene_2" data-name="Ebene 2"><g id="Ebene_1-2" data-name="Ebene 1"><path class="cls-1" d="M107.17,44.58a49.52,49.52,0,0,0-2.48-9.14A52.31,52.31,0,0,0,100.75,27a54.2,54.2,0,0,0-5.41-7.75,56.27,56.27,0,0,0-6.64-6.64A54.63,54.63,0,0,0,72.53,3.26,53,53,0,0,0,63.35.82,54.37,54.37,0,0,0,54,0V4.2A49.14,49.14,0,0,0,45.36,5,50.32,50.32,0,0,0,37,7.17a47,47,0,0,0-7.85,3.7,47.64,47.64,0,0,0-7.13,5A51.77,51.77,0,0,0,15.85,22l3.44,2.87,6.85,5.73,3.12,2.62,10,8.36a19,19,0,0,1,2.37-2.37l-8.35-10-2.62-3.08a36.31,36.31,0,0,1,5.2-3.66l-4.45-7.75a42.17,42.17,0,0,1,7.14-3.33l3,8.42L43,23.6,47.4,35.87A14.12,14.12,0,0,1,50.66,35,16.67,16.67,0,0,1,54,34.68v-17a33.74,33.74,0,0,1,6.31.57l-.68,3.91L57.33,35a14.12,14.12,0,0,1,3.26.86l-2.47,6.74L56,48.53a2.2,2.2,0,0,1,.9.43,2.3,2.3,0,0,1,.82.57l4.06-4.84L66.4,39.2l8.36-10,2.61-3.08,5.74-6.85L86,15.82A61.16,61.16,0,0,1,92.14,22a47.23,47.23,0,0,1,5,7.14l-3.87,2.26a42.43,42.43,0,0,1,3.33,7.13l-8.42,3.05-3.77,1.4L72.1,47.38l-6.74,2.47a10.12,10.12,0,0,1,.54,2L73,50.64A16.67,16.67,0,0,1,73.29,54h26a40.76,40.76,0,0,0-.72-7.86l4.45-.79a49.34,49.34,0,0,1,.75,8.65H108A54,54,0,0,0,107.17,44.58Z"/><path class="cls-1" d="M89.74,60.29l-3.91-.68L73,57.31a12.72,12.72,0,0,1-.86,3.27L84.36,65l3.77,1.4a36.47,36.47,0,0,1-2.65,5.74,38,38,0,0,1-3.66,5.2l-3.08-2.62-10-8.35L63.28,61.8a14.78,14.78,0,0,1-1.47,1.5,10.44,10.44,0,0,1-1.76,1.19,8.93,8.93,0,0,1-1.9.89,9.55,9.55,0,0,1-2,.54L55,59.75a4.65,4.65,0,0,1-2,0,4.07,4.07,0,0,1-1-.25l-2.15,5.88L47.4,72.13,43,84.36l-1.4,3.8a37.47,37.47,0,0,1-10.93-6.31,38,38,0,0,1-4.48-4.49L19.25,83.1a46.06,46.06,0,0,0,5.63,5.63,45,45,0,0,0,6.46,4.52,42.19,42.19,0,0,0,7.17,3.34,43.25,43.25,0,0,0,7.63,2L45.36,103a49.37,49.37,0,0,1-8.4-2.22,52.26,52.26,0,0,1-7.85-3.7,49.93,49.93,0,0,1-7.1-5A46,46,0,0,1,15.85,86a49.2,49.2,0,0,1-5-7.1l3.88-2.22,7.78-4.49,3.51-2a29.19,29.19,0,0,0,3.23,4.62l9.93-8.35a16.48,16.48,0,0,1-1.9-2.76,14.16,14.16,0,0,1-1.44-3.05A16.9,16.9,0,0,1,35,57.35,17.75,17.75,0,0,1,34.67,54,18,18,0,0,1,35,50.61l7.07,1.25a9,9,0,0,1,.53-2,9.44,9.44,0,0,1,.9-1.9l-6.2-3.59a15.47,15.47,0,0,0-1.44,3.05L23.63,42.93l-3.8-1.4L11.4,38.45a42.81,42.81,0,0,0-2,7.67l8.82,1.55,3.95.68A35.74,35.74,0,0,0,21.69,54h-13a40.58,40.58,0,0,0,.71,7.85L5,62.62A50.38,50.38,0,0,1,7.17,36.94a52.74,52.74,0,0,1,3.69-7.85L7.53,27.15,7.24,27A52.31,52.31,0,0,0,3.3,35.44,49.52,49.52,0,0,0,.82,44.58a54.23,54.23,0,0,0,0,18.79A54.12,54.12,0,0,0,7.24,81a52.94,52.94,0,0,0,5.38,7.72,59.17,59.17,0,0,0,6.67,6.67A52.84,52.84,0,0,0,27,100.75a54.18,54.18,0,0,0,17.6,6.42,54.23,54.23,0,0,0,18.79,0,51.79,51.79,0,0,0,9.07-2.44,51.41,51.41,0,0,0,8.53-4,54.51,54.51,0,0,0,7.71-5.38,56.52,56.52,0,0,0,6.64-6.67l-.26-.22L92.14,86A53.22,53.22,0,0,1,86,92.14L83.11,88.7A45,45,0,0,0,93.22,76.61l3.87,2.26A45.91,45.91,0,0,0,100.78,71,49.28,49.28,0,0,0,103,62.62l-4.45-.79ZM54,90.35a32.92,32.92,0,0,0,6.31-.58l-.68-3.94L57.37,73a16.8,16.8,0,0,0,3.22-.86L65,84.36l1.4,3.8,3,8.43a43,43,0,0,1-7.63,2,40,40,0,0,1-7.85.72Z"/></g></g></svg>